# xmcd CD database file
#
# Track frame offsets:
#	182
#	18222
#	52095
#	57245
#	75810
#	78337
#	89795
#	102522
#	124422
#	147690
#	196820
#	204015
#	211582
#	215267
#	221352
#	223682
#	232822
#	238610
#	243172
#	250905
#	265982
#	278180
#	282697
#	295700
#	308832
#
# Disc length: 4472 seconds
#
# Revision: 0
# Processed by: cddbd v1.5.2PL0 Copyright (c) Steve Scherf et al.
# Submitted via: CDex 1.51
#
DISCID=71117619
DTITLE=RLPO - Groves - Elgar Orchestral Music
DYEAR=1977
DGENRE=Orchestral
TTITLE0=Caractacus -V- Captive Britons, see them
TTITLE1=Caractacus -VI- The March Triumphal thunders
TTITLE2=Caractacus -VI- Unbind his Hands
TTITLE3=Caractacus -VI- Heap Torment upon Torment
TTITLE4=Caractacus -VI- Slay, slay the Briton
TTITLE5=Caractacus -VI- I plead not for myself
TTITLE6=Caractacus -VI- Grace from the Roman!
TTITLE7=Caractacus -VI- The Clang of Arms is over
TTITLE8=Imperial March Op.32
TTITLE9=Coronation March Op.65
TTITLE10=Enigma Variations - Theme
TTITLE11=Enigma Variations -I- CAE (The Composer's Wife)
TTITLE12=Enigma Variations -II- HDS-P (Hew David Steuart-Powell)
TTITLE13=Enigma Variations -III- RBT (Richard Baxter Townsend)
TTITLE14=Enigma Variations -IV- WMB (William Meath Baker)
TTITLE15=Enigma Variations -V- RPA (Richard Penrose Arnold)
TTITLE16=Enigma Variations -VI- Ysobel (Isabel Fitton)
TTITLE17=Enigma Variations -VII- Troyte (Troyte Griffith)
TTITLE18=Enigma Variations -VIII- WN (Winifred Norbury)
TTITLE19=Enigma Variations -IX- Nimrod (A. J. Jaeger)
TTITLE20=Enigma Variations -X- Intermezzo: Dorabella (Dora Penny)
TTITLE21=Enigma Variations -XI- GRS (George Robertson Sinclair)
TTITLE22=Enigma Variations -XII- BGN (Basil G. Nevinson)
TTITLE23=Enigma Variations -XIII- Romanza: *** (Lady Mary Lygon)
TTITLE24=Enigma Variations -XIV- Finale: EDU (The Composer)
EXTD=YEAR: 1977
EXTT0=
EXTT1=
EXTT2=
EXTT3=
EXTT4=
EXTT5=
EXTT6=
EXTT7=
EXTT8=
EXTT9=
EXTT10=
EXTT11=
EXTT12=
EXTT13=
EXTT14=
EXTT15=
EXTT16=
EXTT17=
EXTT18=
EXTT19=
EXTT20=
EXTT21=
EXTT22=
EXTT23=
EXTT24=
PLAYORDER=
